<svg class="{{ .className }}" width="200" height="125" viewBox="0 0 200 125" fill="none" xmlns="http://www.w3.org/2000/svg">
<rect x="44.8655" y="51.0251" width="36.9792" height="6.36815" fill="#DBF227"/>
<rect x="95.958" y="51.0251" width="74.3114" height="6.36815" fill="#F21BC0"/>
<rect x="35" y="99.5217" width="58.9366" height="6.36815" fill="#68CFBD"/>
<rect x="107.774" y="99.5215" width="55.8617" height="6.36815" fill="#DBF227"/>
<rect x="44.8655" y="83.3564" width="49.0712" height="6.36815" fill="#F21BC0"/>
<rect x="35" y="18.6948" width="36.9792" height="6.36815" fill="#DBF227"/>
<rect x="79.4189" y="18.6948" width="36.9792" height="6.36815" fill="#05E6E6"/>
<rect x="44.8655" y="34.8596" width="59.7054" height="6.36815" fill="#68CFBD"/>
<rect x="126.608" y="34.8596" width="36.9792" height="6.36815" fill="#05E6E6"/>
<rect x="35" y="67.1904" width="80.1573" height="6.36815" fill="#05E6E6"/>
<rect x="123.021" y="67.1904" width="40.5586" height="6.36815" fill="#129999"/>
<path fill-rule="evenodd" clip-rule="evenodd" d="M95.7958 49.3784H67.3247V55.481H60.8516V74.4761H67.3247V80.8556H88.0548V74.4766H95.8393V64.8452H95.7958V49.3784Z" fill="#4E4B4B"/>
<path fill-rule="evenodd" clip-rule="evenodd" d="M108.715 49.3276H135.025V55.481H141.743V74.4761L135.025 74.4762H135.025V80.8978H113.473V74.4762H108.715V49.3276Z" fill="#4E4B4B"/>
<rect x="46.8569" y="49.3276" width="7.27739" height="25.1485" fill="#4E4B4B"/>
<rect x="53.5747" y="35.9509" width="7.27739" height="13.3769" fill="#4E4B4B"/>
<rect x="60.572" y="23.9111" width="7.27739" height="12.0392" fill="#4E4B4B"/>
<rect x="135.865" y="23.9111" width="7.27739" height="12.0392" fill="#4E4B4B"/>
<rect x="143.143" y="35.9509" width="7.27739" height="12.0392" fill="#4E4B4B"/>
<rect x="150.42" y="47.9902" width="7.27739" height="26.4862" fill="#4E4B4B"/>
<rect x="66.4497" y="88.3882" width="7.55729" height="19.5302" fill="#4E4B4B"/>
<rect x="128.588" y="88.3882" width="7.27739" height="19.5302" fill="#4E4B4B"/>
<rect x="135.865" y="81.9673" width="7.27739" height="6.4209" fill="#4E4B4B"/>
<rect x="108.155" y="101.498" width="7.27739" height="6.4209" fill="#4E4B4B"/>
<rect x="87.1628" y="101.498" width="7.83719" height="6.4209" fill="#4E4B4B"/>
<rect x="143.143" y="75.5459" width="7.27739" height="6.4209" fill="#4E4B4B"/>
<rect x="51.895" y="74.4766" width="7.27739" height="7.49105" fill="#4E4B4B"/>
<rect x="59.1726" y="81.9673" width="7.27739" height="6.4209" fill="#4E4B4B"/>
<path fill-rule="evenodd" clip-rule="evenodd" d="M110 80H95V86V95H110V86V80Z" fill="#4E4B4B"/>
<rect x="74.0076" y="107.919" width="54.5804" height="6.4209" fill="#4E4B4B"/>
<rect x="67.8491" y="16.6885" width="12.8754" height="7.22351" fill="#4E4B4B"/>
<rect x="122.99" y="16.6885" width="12.8754" height="7.22351" fill="#4E4B4B"/>
<rect x="80.7249" y="10" width="42.2649" height="7.22351" fill="#4E4B4B"/>
<path fill-rule="evenodd" clip-rule="evenodd" d="M122.99 17.2231H80.7249V23.9111H67.8491V52.0026H95.8396V80.8975H102.837V80.8971H106.196V80.8975H108.715V93.7388H108.155H102.837H95.8393V80.8972H95.839V74.4766H87.7219V80.8972H87.1629H85.7629H79.605H74.0076H67.8498V74.4597H60.8521V55.4811H67.8491V35.4158H60.8516V49.3276H53.5747V74.4762H59.1904V81.9842H66.4497V88.3883H74.0076V107.919H87.1629V101.498H94.9998V107.918H108.155V101.497H108.715V101.498H115.432V107.919H128.587V88.3883H135.865V81.9676H143.142V75.5466H150.42V47.9902H143.142V35.6836H138.104V23.9111H122.99V17.2231ZM135.025 80.8972V74.4766H141.743V55.4814H135.025V52.0026H108.715V74.4766H114.313V80.8972H115.432H117.112H127.748H128.587H135.025Z" fill="#FFFDFD"/>
<path class="svg-logo_bracket" d="M200 62.3047V68.3594C195.475 68.3594 192.304 69.4987 190.489 71.7773C188.701 74.056 187.806 77.8646 187.806 83.2031V98.8281C187.806 103.32 187.441 107.21 186.709 110.498C186.004 113.786 184.839 116.504 183.213 118.652C181.588 120.801 179.42 122.396 176.71 123.437C174.001 124.479 170.654 125 166.671 125V115.43C169.814 115.43 172.28 114.827 174.068 113.623C175.884 112.451 177.157 110.645 177.889 108.203C178.648 105.762 179.027 102.637 179.027 98.8281V79.2969C179.027 76.7578 179.298 74.4466 179.84 72.3633C180.409 70.2799 181.439 68.4896 182.929 66.9922C184.419 65.4948 186.533 64.3392 189.27 63.5254C192.033 62.7116 195.61 62.3047 200 62.3047ZM166.671 0C170.654 0 174.001 0.520835 176.71 1.56251C179.42 2.60417 181.588 4.19922 183.213 6.34766C184.839 8.4961 186.004 11.2142 186.709 14.502C187.441 17.7897 187.806 21.6797 187.806 26.1719V41.7969C187.806 47.1354 188.701 50.944 190.489 53.2227C192.304 55.5013 195.475 56.6406 200 56.6406V62.6953C195.61 62.6953 192.033 62.2884 189.27 61.4746C186.533 60.6608 184.419 59.5052 182.929 58.0078C181.439 56.5104 180.409 54.7201 179.84 52.6367C179.298 50.5534 179.027 48.2422 179.027 45.7031V26.1719C179.027 22.3633 178.648 19.2383 177.889 16.7969C177.157 14.3229 175.884 12.5 174.068 11.3281C172.28 10.1563 169.814 9.57031 166.671 9.57031V0ZM200 56.6406V68.3594H190.408V56.6406H200Z" fill="white"/>
<path class="svg-logo_bracket" d="M0 62.6953V56.6406C4.52516 56.6406 7.68193 55.5013 9.47031 53.2227C11.2858 50.944 12.1935 47.1354 12.1935 41.7969V26.1719C12.1935 21.6797 12.5458 17.7897 13.2503 14.502C13.9819 11.2142 15.1606 8.4961 16.7864 6.34766C18.4122 4.19922 20.58 2.60417 23.2897 1.56251C25.9993 0.520835 29.3458 0 33.329 0V9.57031C30.1858 9.57031 27.7064 10.1563 25.8909 11.3281C24.1026 12.5 22.829 14.3229 22.0703 16.7969C21.3387 19.2383 20.9729 22.3633 20.9729 26.1719V45.7031C20.9729 48.2422 20.6884 50.5534 20.1193 52.6367C19.5774 54.7201 18.5613 56.5104 17.071 58.0078C15.5806 59.5052 13.4535 60.6608 10.6897 61.4746C7.9529 62.2884 4.38967 62.6953 0 62.6953ZM33.329 125C29.3458 125 25.9993 124.479 23.2897 123.437C20.58 122.396 18.4122 120.801 16.7864 118.652C15.1606 116.504 13.9819 113.786 13.2503 110.498C12.5458 107.21 12.1935 103.32 12.1935 98.8281V83.2031C12.1935 77.8646 11.2858 74.056 9.47031 71.7773C7.68193 69.4987 4.52516 68.3594 0 68.3594V62.3047C4.38967 62.3047 7.9529 62.7116 10.6897 63.5254C13.4535 64.3392 15.5806 65.4948 17.071 66.9922C18.5613 68.4896 19.5774 70.2799 20.1193 72.3633C20.6884 74.4466 20.9729 76.7578 20.9729 79.2969V98.8281C20.9729 102.637 21.3387 105.762 22.0703 108.203C22.829 110.645 24.1026 112.451 25.8909 113.623C27.7064 114.827 30.1858 115.43 33.329 115.43V125ZM0 68.3594V56.6406H9.59225V68.3594H0Z" fill="white"/>
</svg>