<?xml version="1.0" standalone="no"?>
<!DOCTYPE svg PUBLIC "-//W3C//DTD SVG 20010904//EN"
 "http://www.w3.org/TR/2001/REC-SVG-20010904/DTD/svg10.dtd">
<svg version="1.0" xmlns="http://www.w3.org/2000/svg"
 width="270.000000pt" height="270.000000pt" viewBox="0 0 270.000000 270.000000"
 preserveAspectRatio="xMidYMid meet">
<metadata>
Created by potrace 1.14, written by Peter Selinger 2001-2017
</metadata>
<g transform="translate(0.000000,270.000000) scale(0.100000,-0.100000)"
fill="#000000" stroke="none">
<path d="M0 1350 l0 -1350 1350 0 1350 0 0 1350 0 1350 -1350 0 -1350 0 0
-1350z m1740 805 l0 -65 150 0 150 0 0 -113 0 -113 245 4 245 5 0 -62 0 -61
-124 0 -125 0 -3 53 -3 52 -67 3 -68 3 0 -121 0 -120 70 0 70 0 0 -254 c0
-140 -3 -261 -6 -270 -5 -12 -21 -16 -70 -16 l-64 0 0 -60 0 -60 -75 0 -75 0
0 -65 0 -65 -70 0 -70 0 0 -190 0 -191 -127 3 -128 3 -3 63 -3 62 -64 0 -64 0
-3 -62 -3 -63 -127 -3 -128 -3 0 66 0 65 -75 0 -74 0 -3 -62 -3 -63 -127 -3
-128 -3 0 191 0 190 -75 0 -75 0 0 65 0 65 -70 0 -70 0 0 70 0 70 -55 0 -55 0
0 250 0 250 70 0 70 0 0 130 0 130 -70 0 -70 0 0 -55 0 -56 -82 3 -83 3 -3 58
-3 57 226 0 225 0 0 110 0 110 -70 0 c-40 0 -70 -4 -70 -10 0 -6 -90 -10 -250
-10 l-250 0 0 60 0 60 320 0 320 0 0 -50 0 -50 125 0 125 0 0 65 0 65 410 0
410 0 0 -65z m-1480 -655 c0 -53 -2 -60 -20 -60 -18 0 -20 7 -20 60 0 53 2 60
20 60 18 0 20 -7 20 -60z m0 -310 l0 -60 -115 0 -115 0 0 60 0 60 115 0 115 0
0 -60z m380 -630 l0 -60 -305 0 -305 0 0 60 0 60 305 0 305 0 0 -60z m1890 0
l0 -60 -270 0 -270 0 0 60 0 60 270 0 270 0 0 -60z"/>
<path d="M670 1505 l0 -35 -70 0 -70 0 0 -180 0 -180 70 0 70 0 0 -65 0 -65
190 0 189 0 3 63 3 62 78 3 77 3 0 214 0 215 -270 0 -270 0 0 -35z"/>
<path d="M1470 1325 l0 -215 50 0 49 0 3 -62 3 -63 197 -3 197 -2 3 62 3 63
63 3 62 3 0 179 0 179 -62 3 c-63 3 -63 3 -66 36 l-3 32 -250 0 -249 0 0 -215z"/>
<path d="M1220 855 l0 -125 120 0 120 0 0 125 0 125 -120 0 -120 0 0 -125z"/>
</g>
</svg>
